<?xml version="1.0" encoding="UTF-8" standalone="no"?>
<svg
   xmlns:dc="http://purl.org/dc/elements/1.1/"
   xmlns:cc="http://creativecommons.org/ns#"
   xmlns:rdf="http://www.w3.org/1999/02/22-rdf-syntax-ns#"
   xmlns:svg="http://www.w3.org/2000/svg"
   xmlns="http://www.w3.org/2000/svg"
   xmlns:xlink="http://www.w3.org/1999/xlink"
   xmlns:sodipodi="http://sodipodi.sourceforge.net/DTD/sodipodi-0.dtd"
   xmlns:inkscape="http://www.inkscape.org/namespaces/inkscape"
   width="650"
   height="577.03522"
   viewBox="0 0 67.587327 59.850093"
   preserveAspectRatio="xMinYMin meet"
   version="1.1"
   id="svg859"
   sodipodi:docname="octocat.svg"
   inkscape:version="1.0.1 (c497b03c, 2020-09-10)">
  <metadata
     id="metadata863">
    <rdf:RDF>
      <cc:Work
         rdf:about="">
        <dc:format>image/svg+xml</dc:format>
        <dc:type
           rdf:resource="http://purl.org/dc/dcmitype/StillImage" />
        <dc:title></dc:title>
      </cc:Work>
    </rdf:RDF>
  </metadata>
  <sodipodi:namedview
     pagecolor="#ffffff"
     bordercolor="#666666"
     borderopacity="1"
     objecttolerance="10"
     gridtolerance="10"
     guidetolerance="10"
     inkscape:pageopacity="0"
     inkscape:pageshadow="2"
     inkscape:window-width="1792"
     inkscape:window-height="1075"
     id="namedview861"
     showgrid="false"
     inkscape:zoom="0.28919578"
     inkscape:cx="1256"
     inkscape:cy="1274.6958"
     inkscape:window-x="0"
     inkscape:window-y="23"
     inkscape:window-maximized="1"
     inkscape:current-layer="svg859"
     lock-margins="true"
     fit-margin-top="25"
     fit-margin-left="25"
     fit-margin-right="25"
     fit-margin-bottom="25" />
  <path
     fill="#9edcf2"
     d="m 51.559708,51.283923 c 0,3.38749 -7.847279,6.116978 -17.52234,6.116978 -9.675061,0 -17.522339,-2.753859 -17.522339,-6.116978 0,-3.38749 7.847278,-6.116978 17.522339,-6.116978 9.675061,0 17.52234,2.729488 17.52234,6.116978 z m 0,0"
     id="path833"
     style="stroke-width:0.243704" />
  <defs
     id="defs836">
    <path
       id="a"
       d="m 98.1,244.8 c 1.6,7.5 5.5,11.9 9.4,14.5 h 41.1 c 5,-3.4 10.1,-9.8 10.1,-21.8 v -31 c 0,0 0.6,-7.7 7.7,-10.2 0,0 4.1,-2.9 -0.3,-4.5 0,0 -19.5,-1.6 -19.5,14.4 v 23.6 c 0,0 0.8,8.7 -3.8,12.3 v -29.2 c 0,0 0.3,-9.3 5.1,-12.8 0,0 3.2,-5.7 -3.8,-4.2 0,0 -13.4,1.9 -14,17.6 l -0.3,30 h -3.2 l -0.3,-30 c -0.6,-15.6 -14,-17.6 -14,-17.6 -7,-1.6 -3.8,4.2 -3.8,4.2 4.8,3.5 5.1,12.8 5.1,12.8 v 29.5 c -4.6,-3.3 -3.8,-12.6 -3.8,-12.6 v -23.6 c 0,-16 -19.5,-14.4 -19.5,-14.4 -4.5,1.6 -0.3,4.5 -0.3,4.5 7,2.6 7.7,10.2 7.7,10.2 v 21.7 z" />
  </defs>
  <clipPath
     id="b">
    <use
       xlink:href="#a"
       overflow="visible"
       id="use838"
       x="0"
       y="0"
       width="100%"
       height="100%" />
  </clipPath>
  <path
     clip-path="url(#b)"
     fill="#7dbce7"
     d="m 200.9,199.8 c 0,13.9 -32.2,25.1 -71.9,25.1 -39.7,0 -71.9,-11.3 -71.9,-25.1 0,-13.9 32.2,-25.1 71.9,-25.1 39.7,0 71.9,11.2 71.9,25.1 z m 0,0"
     id="path841"
     transform="matrix(0.24370431,0,0,0.24370431,2.5995126,2.5918032)" />
  <path
     fill="#9edcf2"
     d="m 14.029245,33.274175 -0.511779,1.754671 c 0,0 -0.121852,0.633631 0.463038,0.755483 0.633631,-0.02437 0.58489,-0.609261 0.53615,-0.779854 z m 0,0"
     id="path843"
     style="stroke-width:0.243704" />
  <path
     fill="#010101"
     d="m 64.939074,25.889934 0.04874,-0.219334 c -5.142161,-1.023558 -10.406174,-1.047928 -13.5987,-0.901706 0.511779,-1.876523 0.682372,-4.069861 0.682372,-6.482534 0,-3.484972 -1.316003,-6.263201 -3.41186,-8.3590576 0.365556,-1.194151 0.852965,-3.8505282 -0.487409,-7.2380182 0,0 -2.388302,-0.755483 -7.822908,2.875711 -2.120227,-0.536149 -4.386677,-0.804224 -6.653127,-0.804224 -2.485784,0 -4.995938,0.316816 -7.35987,0.950447 C 20.731113,1.8850604 18.2697,2.6649142 18.2697,2.6649142 c -1.608449,4.021121 -0.609261,7.0186842 -0.316816,7.7497968 -1.900893,2.047116 -3.046304,4.654752 -3.046304,7.847278 0,2.412673 0.268075,4.581641 0.950447,6.458165 C 12.64013,24.598301 7.5710804,24.647042 2.5995126,25.64623 l 0.048741,0.219334 c 4.9715679,-0.999188 10.0893586,-1.023558 13.2818856,-0.901706 0.146222,0.389927 0.316815,0.779854 0.487408,1.14541 -3.168156,0.09748 -8.5540214,0.511779 -13.7205527,1.974005 l 0.073111,0.219334 C 7.9853778,26.840381 13.419984,26.450454 16.56377,26.352972 c 1.900893,3.509342 5.605199,5.800163 12.233956,6.506905 -0.950447,0.633632 -1.900894,1.705931 -2.290821,3.533713 -1.291632,0.609261 -5.337124,2.120227 -7.774167,-2.071487 0,0 -1.364744,-2.485784 -3.97238,-2.680747 0,0 -2.534525,-0.04874 -0.170593,1.584078 0,0 1.68156,0.804224 2.85134,3.801787 0,0 1.535337,5.11779 8.870837,3.460601 v 5.239643 c 0,0 -0.146223,1.876523 -1.876523,2.485784 0,0 -1.023558,0.706742 0.07311,1.096669 0,0 4.752234,0.389927 4.752234,-3.509342 v -5.751422 c 0,0 -0.194963,-2.29082 0.926076,-3.070674 v 9.455727 c 0,0 -0.07311,2.26645 -1.242892,3.119415 0,0 -0.779853,1.389115 0.926077,1.023558 0,0 3.265637,-0.463038 3.41186,-4.289195 l 0.07311,-9.57758 h 0.779854 l 0.07311,9.57758 c 0.146223,3.801787 3.411861,4.289195 3.411861,4.289195 1.70593,0.389927 0.926076,-1.023558 0.926076,-1.023558 -1.169778,-0.852965 -1.242889,-3.119415 -1.242889,-3.119415 v -9.382616 c 1.12104,0.877336 0.926076,2.997563 0.926076,2.997563 v 5.751422 c 0,3.899269 4.752234,3.509342 4.752234,3.509342 1.09667,-0.389927 0.07311,-1.096669 0.07311,-1.096669 -1.70593,-0.633632 -1.876523,-2.485784 -1.876523,-2.485784 v -7.554834 c 0,-2.948822 -1.242892,-4.508529 -2.461414,-5.312754 7.067425,-0.706742 10.454915,-2.973192 12.014622,-6.531275 3.095045,0.07311 8.675874,0.463038 13.988627,1.974005 l 0.07311,-0.219334 c -5.28838,-1.486596 -10.820467,-1.876523 -13.964253,-1.974005 0.146223,-0.365556 0.268075,-0.731113 0.389927,-1.12104 3.265638,-0.121852 8.554021,-0.121852 13.720552,0.901706 z m 0,0"
     id="path845"
     style="stroke-width:0.243704" />
  <path
     fill="#f5ccb3"
     d="m 45.150285,18.115767 c 1.510966,1.389114 2.412672,3.046304 2.412672,4.825345 0,8.383428 -6.23883,8.602762 -13.939886,8.602762 -7.701056,0 -13.939886,-1.169781 -13.939886,-8.602762 0,-1.779041 0.877335,-3.436231 2.388302,-4.800975 2.510154,-2.29082 6.750609,-1.072299 11.551584,-1.072299 4.800975,0 9.017059,-1.242892 11.527214,1.047929 z m 0,0"
     id="path847"
     style="stroke-width:0.243704" />
  <path
     fill="#ffffff"
     d="m 28.992689,23.37978 c 0,2.315191 -1.291633,4.167344 -2.900081,4.167344 -1.608448,0 -2.900081,-1.876524 -2.900081,-4.167344 0,-2.315191 1.291633,-4.167344 2.900081,-4.167344 1.608448,-0.02437 2.900081,1.852153 2.900081,4.167344 z m 0,0"
     id="path849"
     style="stroke-width:0.243704" />
  <path
     fill="#af5c51"
     d="m 28.066613,23.428521 c 0,1.535337 -0.877336,2.778229 -1.925264,2.778229 -1.072299,0 -1.925264,-1.242892 -1.925264,-2.778229 0,-1.535337 0.877335,-2.778229 1.925264,-2.778229 1.047928,0 1.925264,1.242892 1.925264,2.778229 z m 0,0"
     id="path851"
     style="stroke-width:0.243704" />
  <path
     fill="#ffffff"
     d="m 44.565394,23.37978 c 0,2.315191 -1.291632,4.167344 -2.900081,4.167344 -1.608448,0 -2.900081,-1.876524 -2.900081,-4.167344 0,-2.315191 1.291633,-4.167344 2.900081,-4.167344 1.584078,-0.02437 2.900081,1.852153 2.900081,4.167344 z m 0,0"
     id="path853"
     style="stroke-width:0.243704" />
  <path
     fill="#af5c51"
     d="m 43.614948,23.428521 c 0,1.535337 -0.877336,2.778229 -1.925264,2.778229 -1.072299,0 -1.925264,-1.242892 -1.925264,-2.778229 0,-1.535337 0.877335,-2.778229 1.925264,-2.778229 1.072299,0 1.925264,1.242892 1.925264,2.778229 z m 0,0 m -9.212023,3.655564 c 0,0.389927 -0.316816,0.731113 -0.731113,0.731113 -0.389927,0 -0.731113,-0.316815 -0.731113,-0.731113 0,-0.414297 0.316816,-0.731113 0.731113,-0.731113 0.389927,0 0.731113,0.316816 0.731113,0.731113 z m 0,0 m -2.412673,1.827783 c -0.04874,-0.121853 0.02437,-0.243705 0.146223,-0.292446 0.121852,-0.04874 0.243704,0.02437 0.292445,0.146223 0.194963,0.53615 0.682372,0.877336 1.242892,0.877336 0.56052,0 1.047928,-0.365557 1.242892,-0.877336 0.04874,-0.121852 0.170593,-0.194963 0.292445,-0.146223 0.121852,0.04874 0.194964,0.170593 0.146223,0.292446 -0.243705,0.706742 -0.926077,1.194151 -1.68156,1.194151 -0.755483,0 -1.437855,-0.487409 -1.68156,-1.194151 z m 0,0"
     id="path855"
     style="stroke-width:0.243704" />
  <path
     fill="#c4e5d9"
     d="m 15.881398,32.226246 c 0,0.194964 -0.219334,0.341186 -0.511779,0.341186 -0.268075,0 -0.511779,-0.146222 -0.511779,-0.341186 0,-0.194963 0.219333,-0.341186 0.511779,-0.341186 0.292445,0 0.511779,0.146223 0.511779,0.341186 z m 0,0 m 1.413485,0.779854 c 0,0.194963 -0.219334,0.341186 -0.511779,0.341186 -0.268075,0 -0.511779,-0.146223 -0.511779,-0.341186 0,-0.194963 0.219333,-0.341186 0.511779,-0.341186 0.292445,0 0.511779,0.146223 0.511779,0.341186 z m 0,0 m 0.852965,1.023558 c 0,0.194963 -0.219334,0.341186 -0.511779,0.341186 -0.268075,0 -0.511779,-0.146223 -0.511779,-0.341186 0,-0.194963 0.219333,-0.341186 0.511779,-0.341186 0.292445,-0.02437 0.511779,0.146223 0.511779,0.341186 z m 0,0 m 0.779853,1.169781 c 0,0.194963 -0.219333,0.341186 -0.511779,0.341186 -0.268074,0 -0.511779,-0.146223 -0.511779,-0.341186 0,-0.194964 0.219334,-0.341186 0.511779,-0.341186 0.292446,-0.02437 0.511779,0.146222 0.511779,0.341186 z m 0,0 m 0.852966,1.072299 c 0,0.194963 -0.219334,0.341186 -0.51178,0.341186 -0.268074,0 -0.511779,-0.146223 -0.511779,-0.341186 0,-0.194964 0.219334,-0.341186 0.511779,-0.341186 0.292446,0 0.51178,0.146222 0.51178,0.341186 z m 0,0 m 1.16978,0.950446 c 0,0.194964 -0.219334,0.341186 -0.511779,0.341186 -0.268075,0 -0.511779,-0.146222 -0.511779,-0.341186 0,-0.194963 0.219334,-0.341186 0.511779,-0.341186 0.292445,-0.02437 0.511779,0.146223 0.511779,0.341186 z m 0,0 m 1.632819,0.609261 c 0,0.194964 -0.219334,0.341186 -0.511779,0.341186 -0.268075,0 -0.511779,-0.146222 -0.511779,-0.341186 0,-0.194963 0.219334,-0.341186 0.511779,-0.341186 0.292445,0 0.511779,0.146223 0.511779,0.341186 z m 0,0 m 1.632819,0 c 0,0.194964 -0.219334,0.341186 -0.511779,0.341186 -0.268075,0 -0.511779,-0.146222 -0.511779,-0.341186 0,-0.194963 0.219334,-0.341186 0.511779,-0.341186 0.292445,0 0.511779,0.146223 0.511779,0.341186 z m 0,0 m 1.657189,-0.268075 c 0,0.194964 -0.219334,0.341187 -0.511779,0.341187 -0.268075,0 -0.511779,-0.146223 -0.511779,-0.341187 0,-0.194963 0.219334,-0.341186 0.511779,-0.341186 0.268075,0 0.511779,0.146223 0.511779,0.341186 z m 0,0"
     id="path857"
     style="stroke-width:0.243704" />
</svg>
